<?xml version="1.0" encoding="utf-8"?>
<!-- Generator: Adobe Illustrator 21.1.0, SVG Export Plug-In . SVG Version: 6.00 Build 0)  -->
<svg version="1.1" id="Calque_1" xmlns="http://www.w3.org/2000/svg" xmlns:xlink="http://www.w3.org/1999/xlink" x="0px" y="0px"
	 viewBox="0 0 432 432" style="enable-background:new 0 0 432 432;" xml:space="preserve">
<style type="text/css">
	.st0{fill:#343434;}
	.st1{fill:#C1292E;}
	.st2{fill:#B4B4B4;}
	.st3{fill:#7AB2B2;}
	.st4{fill:#CFA6B3;}
	.st5{fill:#E2C981;}
	.st6{fill:#A8B239;}
	.st7{fill:#C9879A;}
	.st8{fill:#D0D389;}
	.st9{fill:#B4B85C;}
	.st10{fill:#E6AB3A;}
	.st11{fill:#E27EAF;}
	.st12{fill:#66B7D3;}
	.st13{fill:#AB4B3B;}
	.st14{fill:#EF9148;}
	.st15{fill:#9A9999;}
	.st16{fill:#CDCCCC;}
	.st17{fill:#6E95AA;}
	.st18{fill:#93A7AE;}
	.st19{fill:#B199A5;}
	.st20{fill:#2DABE3;}
	.st21{fill:#48AE4D;}
	.st22{fill:#BF8F8E;}
	.st23{fill:#9A777A;}
	.st24{fill:#AB96B8;}
	.st25{fill:#B08794;}
	.st26{fill:#1B1B1B;}
	.st27{fill:#998675;}
	.st28{fill:#544842;}
	.st29{fill:#F39122;}
	.st30{fill:#B4C4A6;}
	.st31{fill:#959F8B;}
	.st32{fill:#638A99;}
	.st33{fill:#C1B397;}
	.st34{fill:#A1BEC8;}
	.st35{fill:#73868C;}
	.st36{fill:#808181;}
	.st37{fill:#D3B46C;}
	.st38{fill:#A1A87C;}
	.st39{fill:#A39F35;}
	.st40{fill:#E5B746;}
	.st41{fill:#DAB17A;}
	.st42{fill:#D189AF;}
	.st43{fill:#854A67;}
	.st44{fill:#7FA4AC;}
	.st45{fill:#DCC5B2;}
	.st46{fill:#B9CECC;}
	.st47{fill:#A6A59C;}
	.st48{fill:#9EB695;}
	.st49{fill:#A9AA9F;}
	.st50{fill:#BC9B8A;}
	.st51{fill:#22293F;}
	.st52{fill:#B63A44;}
	.st53{fill:#F39B8E;}
	.st54{fill:#6D7D96;}
	.st55{fill:#435882;}
	.st56{fill:#B02025;}
	.st57{fill:#BC2325;}
	.st58{fill:#5F716E;}
	.st59{fill:#7B9B6B;}
	.st60{fill:#DE948B;}
	.st61{fill:#80B7C0;}
	.st62{fill:#E4858B;}
	.st63{fill:#D4B4A1;}
	.st64{fill:#932E4E;}
	.st65{fill:#020203;}
	.st66{fill:#C7B29A;}
	.st67{fill:#9B615A;}
	.st68{fill:#AAA674;}
	.st69{fill:#B7A08E;}
	.st70{fill:#746458;}
	.st71{fill:#A49E58;}
	.st72{fill:#AE675D;}
	.st73{fill:#C19D57;}
	.st74{fill:#D48E5E;}
	.st75{fill:#BB746F;}
	.st76{fill:#95A4AD;}
	.st77{fill:#EACF94;}
	.st78{fill:#9C6E76;}
	.st79{fill:#BD969E;}
	.st80{fill:#EDBF60;}
	.st81{fill:#CC969B;}
	.st82{fill:#9DAFA0;}
	.st83{fill:#6D7B83;}
	.st84{fill:#DDA3A9;}
</style>
<g>
	<g>
		<path class="st27" d="M309.3,120.6c-0.1-2.3-0.2-4.6-0.3-6.9c-0.7-0.1-1.3-0.2-2-0.2c-1.8-0.2-3-1.1-3.4-2.8
			c-0.4-1.5-0.6-3-0.8-4.6c-0.2-1.7-0.3-3.4-0.4-5.2c-0.2-2.4,0.9-4.1,3.1-4.9c1-0.4,2.1-0.6,3.1-0.9c0.2,0,0.3-0.1,0.5-0.2
			c0-0.3,0.1-0.6,0.1-0.8c0-0.5,0-1.1,0-1.6c0.1-2.1,1.1-3.5,3.2-3.9c1.6-0.3,3.3-0.6,5-0.6c5.1-0.2,10.3-0.5,15.4-0.5
			c4.9,0,9.8,0.2,14.8,0.4c4.8,0.2,9.7,0.6,14.5,0.9c0.7,0,1.3,0.1,2,0.2c1.6,0.2,2.8,1.1,3.3,2.7c0.2,0.5,0.4,1,0.4,1.5
			c0.1,0.8,0.5,1.2,1.3,1.3c1.2,0.1,2.3,0.4,3.4,0.6c2.2,0.5,3.4,1.7,3.7,3.9c0.4,2.4,0.3,4.8,0,7.2c-0.4,2.6-1.8,4-4.4,4.6
			c-1,0.2-2,0.5-3.1,0.8c0.1,3.3,0.2,6.6,0.2,9.9c0.3,0.1,0.5,0.2,0.8,0.2c0.4,0.1,0.9,0.2,1.3,0.3c2.1,0.7,3.4,2,3.6,4.3
			c0.1,1.8,0.2,3.6,0.3,5.4c0.5,8.3,0.5,16.7,0.5,25c0,3.7,0,7.5-0.1,11.2c-0.1,1.8-0.4,3.7-0.8,5.5c-0.1,0.7-0.5,1.4-0.8,2
			c-0.7,1.3-1.9,2.2-3.4,2.5c-0.3,0.1-0.7,0.1-1.1,0.2c0,0.4,0,0.7,0,1.1c0,3.1,0,6.2-0.2,9.3c-0.1,1.3-0.3,2.5-0.6,3.7
			c-0.6,2.4-2.2,4.1-4.4,5c-1.7,0.7-3.6,1.1-5.4,1.2c-3.6,0.3-7.2,0.4-10.7,0.7c-9,0.6-17.9,0.4-26.9,0.4c-0.6,0-1.2-0.1-1.8-0.2
			c-1.1-0.4-1.8-1.6-1.6-2.7c0.2-1.2,1.2-2.1,2.4-2.1c0.2,0,0.5,0,0.7,0c7.7-0.1,15.4-0.1,23.1-0.3c4.8-0.1,9.6-0.5,14.3-0.8
			c1.1-0.1,2.2-0.4,3.3-0.6c1.3-0.3,2.1-1.2,2.3-2.6c0.2-1.5,0.4-3,0.4-4.5c0.1-2.2,0-4.4,0-6.5c0-0.3-0.1-0.6-0.1-1
			c-0.3,0-0.6-0.1-0.9-0.1c-5.1,0.1-10.3,0.2-15.4,0.3c-4.2,0.1-8.4,0.1-12.6,0c-1.1,0-2.2-0.2-3.3-0.6c-2.3-0.7-3.5-2.4-3.6-4.8
			c-0.2-2.6-0.2-5.3-0.8-7.9c-0.4-1.6-0.9-3.3-1.5-4.8c-1.2-3-2.9-5.7-4.8-8.3c-1.9-2.5-4.3-4.6-7-6.1c-2.3-1.3-4.6-2.6-6.9-3.8
			c-1.2-0.6-2-1.6-2.3-2.9c-0.4-1.7-0.8-3.4-0.9-5.1c-0.3-2.5-0.4-5-0.5-7.6c0-0.9,0.2-1.9,0.4-2.8c0.3-1.2,1.2-2.1,2.4-2.5
			C307.3,121.1,308.3,120.9,309.3,120.6z M363.8,112.3c-16.7,0.4-33.1,0.7-49.7,1.1c0.1,2.4,0.2,4.8,0.3,7.2
			c1.9,0.3,48.4,0.8,49.6,0.6C364,118.2,363.9,115.3,363.8,112.3z"/>
		<g>
			<path class="st66" d="M113,96.7c-0.4-3-0.8-6.1-1.8-9c-1-3.1-2.3-6.1-4.4-8.7c-0.7-0.9-1.5-1.6-2.5-2c-1.2-0.5-2.3-0.4-3.4,0.3
				c-0.8,0.5-1.1,1.3-0.9,2.2c0.2,0.6,0.5,1.2,0.7,1.7c0.5,1,1.1,2.1,1.5,3.1c1.1,2.8,1.5,5.7,1.8,8.6c0.4,3.8,0.3,7.7-0.1,11.5
				c-0.4,4-0.9,7.9-2.2,11.7c-1.1,3.4-2.3,6.8-3.5,10.2c-1.6,4.4-3.4,8.7-4.8,13.2c-1.5,4.9-3,9.7-3.8,14.8
				c-0.9,5.6-1.1,11.2,0,16.8c1.3,6.4,3.9,12.2,7.5,17.6c0.4,0.6,0.8,1.1,1.3,1.6c0.3,0.3,0.6,0.6,1,0.8c0.8,0.5,1.8,0.3,2.5-0.4
				c0.7-0.7,0.8-1.5,0.3-2.4c-0.3-0.5-0.6-0.9-0.9-1.4c-4.7-8.6-6.4-17.8-4.7-27.5c0.9-5.2,2.5-10.2,4.5-15
				c2.2-5.3,4.5-10.5,6.8-15.7c1.5-3.4,2.9-6.8,3.8-10.4C113.6,111.1,113.9,103.9,113,96.7z"/>
			<path class="st66" d="M122.6,125.6c0-4.5,1.2-8.6,2.7-12.7c1-2.7,1.9-5.5,2.9-8.2c1.1-3.1,1.1-6.3,0.5-9.6
				c-0.1-0.8-0.3-1.5-0.3-2.3c-0.1-1.7,1.1-2.7,2.7-2.4c1.1,0.2,1.9,0.8,2.5,1.6c0.9,1.1,1.6,2.4,2.1,3.7c1.6,4.1,1.7,8.3,0.7,12.5
				c-0.5,2.1-1.1,4.2-1.8,6.3c-1.5,4.4-2.6,9-3.3,13.6c-0.3,1.7-0.3,3.5,0.1,5.2c0.6,2.5-1,4.3-3.6,3.9c-1.2-0.2-2.1-0.7-2.8-1.7
				c-1.2-1.8-2-3.7-2.2-5.9C122.7,128.3,122.7,127,122.6,125.6z"/>
			<path class="st66" d="M72.6,146.1c0-3.3,0.5-6.6,1.5-9.8c1.1-3.5,2.2-7,3.4-10.4c0.9-2.7,1.3-5.4,1.5-8.2
				c0.1-2.6-0.3-5.1-0.8-7.6c-0.1-0.5-0.2-1-0.3-1.4c-0.2-1.1,0.4-1.9,1.4-2.3c1.3-0.4,2.5-0.1,3.5,0.9c0.9,0.9,1.4,1.9,1.8,3
				c0.8,2.3,1.3,4.7,1.6,7.1c0.5,5.3-0.1,10.4-1.8,15.4c-1,2.8-2,5.6-2.9,8.5c-1.1,3.4-1.8,6.9-1.6,10.6c0,0.5-0.1,1-0.2,1.5
				c-0.2,1.3-1,2-2.3,2.3c-1.3,0.3-2.2-0.1-3.1-1.1c-1-1.2-1.3-2.7-1.4-4.1C72.8,149,72.7,147.5,72.6,146.1z"/>
		</g>
	</g>
	<g>
		<g>
			<path class="st28" d="M137.2,190.2c2.5,3.6,5,7.1,7.5,10.5c7,9.7,14,19.4,21,29.1c0.6,0.8,1.2,1.5,1.8,2.3
				c0.2,0.3,0.4,0.5,0.6,0.8c0.6,1.1,0.4,2.3-0.5,3.1c-0.9,0.7-2.2,0.7-3.1-0.1c-0.4-0.4-0.7-0.8-1.1-1.2c-2.7-3.6-5.4-7.2-8-10.8
				c-5.6-7.7-11.1-15.5-16.6-23.2c-0.7-1-1.4-2-2.2-3.2c-0.1,0.4-0.1,0.6-0.1,0.7c0.3,5.3,0.6,10.7,0.8,16c0.2,4.7,0.3,9.3,0.4,14
				c0,1.4-0.2,2.7-0.3,4.1c0,0.3-0.1,0.5-0.2,0.8c-0.6,2.1-1.8,3.1-3.9,3.3c-3.1,0.3-6.1,0.4-9.2,0.3c-2-0.1-4,0.1-6,0.1
				c-0.6,0-1.3-0.1-1.9-0.2c-2-0.4-3.3-1.5-3.7-3.5c-0.3-1.7-0.6-3.5-0.7-5.3c-0.3-5.5-0.5-11-0.7-16.5c-0.3-14,0-28.1,0.1-42.1
				c0-3.7-0.4-11.5-0.2-15.2c0-0.9,0.2-1.9,0.4-2.8c0.4-1.6,1.4-2.6,3.1-2.9c1.1-0.1,2.2-0.2,3.3-0.3c4.4-0.2,8.7-0.4,13.1,0.1
				c2.7,0.3,4.3,1.9,4.6,4.6c0.1,0.7,0.2,1.5,0.2,2.2c0.3,6.9,1,17.8,0.9,24.7c0,1.1,0,2.2,0,3.5c0.3-0.4,0.5-0.6,0.7-0.8
				c6.6-9.5,13.7-18.6,20.7-27.8c0.4-0.6,0.9-1.2,1.3-1.8c0.2-0.3,0.5-0.6,0.8-0.9c0.9-0.7,2-0.6,2.8,0c0.8,0.6,1.2,1.7,0.8,2.7
				c-0.2,0.5-0.4,0.9-0.7,1.3c-3.2,4.2-6.4,8.4-9.6,12.6c-3.7,5-7.3,10-11,14.9c-1.4,1.9-2.8,3.8-4.2,5.7
				C137.7,189.5,137.4,189.8,137.2,190.2z"/>
			<path class="st28" d="M301.8,197.8c0,0.7,0,1.3,0,1.9c0.2,7,0.4,14.1,0.6,21.1c0.1,2.5,0,5,0,7.5c0,1-0.2,2.1-0.4,3.1
				c-0.4,1.6-1.5,2.6-3.3,2.8c-0.5,0.1-0.9,0.1-1.4,0.1c-4.2,0.1-8.3,0.2-12.5,0.2c-1.1,0-2.3-0.2-3.4-0.5c-2-0.5-3.1-1.9-3.3-4
				c-0.2-2.9-0.5-5.7-0.6-8.6c-0.2-8.6-0.3-17.2-0.4-25.9c-0.2-10.9-0.3-21.8-0.4-32.8c-0.1-4.5-0.1-9-0.2-13.4c0,0,0-0.1,0-0.1
				c-0.2-2.7,1.2-3.6,3.5-3.9c4.3-0.6,8.7-0.9,13.1-1.1c3.1-0.2,6.1,0,9,0.9c1.2,0.4,2.5,0.8,3.6,1.5c8.8,5,14.5,12.2,16.4,22.3
				c1.7,9.1-1.1,16.9-7.4,23.4c-2.9,2.9-6.4,4.5-10.4,5.1C303.4,197.6,302.6,197.7,301.8,197.8z M301.8,192.9
				c0.7-0.1,1.3-0.1,1.9-0.2c2.9-0.4,5.4-1.6,7.4-3.7c5.1-5.2,7.4-11.3,6.2-18.5c-1.4-9-6.5-15.5-14.4-19.8
				c-0.4-0.2-0.8-0.3-1.2-0.5C301.8,164.4,301.8,178.6,301.8,192.9z"/>
			<path class="st28" d="M199.8,231.1c1.7-0.1,3.3-0.1,4.9-0.2c2.9-0.2,5.8-0.5,8.7-0.7c0.4,0,0.7-0.1,1.1-0.1
				c1.2,0,2.1,0.8,2.3,1.9c0.2,1.1-0.3,2.2-1.4,2.6c-0.4,0.2-0.8,0.3-1.2,0.3c-3,0.3-6,0.6-9,0.8c-4.7,0.3-9.4,0.4-14.1,0.6
				c-3.1,0.1-6.2,0.1-9.3,0c-1.3,0-2.7-0.3-3.9-0.7c-1.6-0.4-2.6-1.6-2.8-3.3c-0.2-0.9-0.2-1.9-0.3-2.9c-0.3-3.7-0.7-7.4-0.9-11.2
				c-0.3-6.4-0.6-12.9-0.8-19.3c-0.2-5.4-0.4-10.7-0.4-16.1c0-7,0-14,0.1-20.9c0-2.6,0.1-5.2,0.1-7.8c0-0.6,0-1.2-0.1-1.8
				c-0.2-1.4,0.5-2.8,1.9-3.3c0.7-0.3,1.5-0.5,2.3-0.6c2.2-0.3,4.3-0.5,6.5-0.6c4.7-0.3,9.5-0.5,14.2-0.6c5-0.1,10.1-0.1,15.1-0.2
				c1.7,0,2.8,1,2.8,2.4c0,1.4-1.1,2.4-2.7,2.4c-4.3,0.1-8.6,0.1-12.9,0.1c-0.7,0-1.3,0.1-2,0.1c0.3,12.7,0.5,25.3,0.8,38
				c0.3,0,0.6,0.1,0.8,0.1c4.3-0.1,8.6-0.3,12.9-0.4c0.6,0,1.2,0,1.8,0.2c1,0.3,1.6,1.2,1.6,2.2c0,1-0.6,2-1.7,2.2
				c-0.8,0.2-1.6,0.3-2.5,0.3c-3.7,0.1-7.5,0.2-11.2,0.3c-0.5,0-0.9,0-1.4,0c-0.3,0.9-0.2,4.9,0.1,9c0.2,3,0.2,6.1,0.3,9.1
				c0.1,3,0.2,6,0.3,9C199.7,225,199.8,228,199.8,231.1z"/>
			<path class="st28" d="M248.3,151.7c0.3,12.8,0.5,25.4,0.8,38c0.3,0,0.6,0.1,0.8,0c4.3-0.1,8.7-0.3,13-0.4c0.4,0,0.8,0,1.2,0
				c1.3,0.2,2.1,1.2,2.1,2.4c0,1.2-0.9,2.1-2.1,2.3c-0.7,0.1-1.4,0.1-2.1,0.2c-3.7,0.1-7.5,0.2-11.2,0.3c-0.4,0-0.9,0-1.4,0
				c0.1,6.1,0.4,12.1,0.6,18.1c0.2,6,0.3,12,0.5,18.1c0.3,0,0.6,0.1,0.9,0c4.3-0.2,8.6-0.4,12.9-1c0.3,0,0.7-0.1,1,0
				c1.1,0.1,1.9,0.8,2.2,1.8c0.2,1-0.2,2.1-1.1,2.6c-0.5,0.2-1,0.4-1.5,0.5c-3,0.3-6,0.6-9,0.8c-4.7,0.3-9.5,0.4-14.2,0.6
				c-3.1,0.1-6.1,0.1-9.2,0c-1.3,0-2.7-0.3-3.9-0.7c-1.7-0.5-2.7-1.8-2.9-3.5c-0.4-4.1-0.8-8.1-1-12.2c-0.4-6.1-0.6-12.1-0.8-18.2
				c-0.5-11.7-0.7-23.3-0.5-35c0.1-3.9,0.2-7.7,0.2-11.6c0-1,0-1.9-0.1-2.9c-0.1-1.7,0.7-3,2.4-3.5c1.5-0.4,3.1-0.7,4.6-0.8
				c3.3-0.2,6.6-0.3,9.9-0.5c7.5-0.5,15.1-0.5,22.6-0.5c0.5,0,1.1,0,1.6,0.2c1,0.3,1.6,1.1,1.6,2.2c0,1-0.5,1.9-1.5,2.2
				c-0.5,0.2-1,0.2-1.6,0.2c-4.2,0.1-8.4,0.1-12.5,0.1C249.7,151.7,249.1,151.7,248.3,151.7z"/>
		</g>
		<path class="st0" d="M211,112c-0.2,0.3-0.3,0.7-0.5,1c-1.1,2.5-2.4,4.9-4.1,7.1c-1,1.2-2,2.3-3.3,3.2c-3.2,2.2-6.8,2.1-9.9-0.2
			c-2-1.5-3.3-3.5-4.3-5.8c-0.9-2.2-1.4-4.5-1.7-6.8c-0.1-0.5-0.1-1-0.2-1.6c-4.4,1.5-8.8,3-13.2,4.5c0,0.4,0,0.8-0.1,1.2
			c-0.1,3.9-0.3,7.9-1.1,11.8c-0.7,3.4-1.9,6.5-4.2,9.1c-1.5,1.8-3.3,3.1-5.6,3.7c-5.8,1.6-11.5-1.7-13.1-7.6
			c-1.1-3.8-0.6-7.3,1.7-10.6c1.5-2.2,3.4-3.9,5.5-5.4c3.2-2.2,6.7-4,10.4-5.4c0.4-0.2,0.9-0.3,1.4-0.5c0.2-5.4-0.3-10.8-0.3-16.3
			c-0.6-0.1-1.2-0.3-1.8-0.4c-2.1-0.4-4.1-0.8-6.3-0.6c-2.9,0.2-5.5,1.3-8,2.5c-0.7,0.4-1.4,0.8-2.2,1c-1.8,0.5-3.4-1.1-3-2.9
			c0.2-0.7,0.6-1.3,1.2-1.7c3.9-2.2,7.9-3.8,12.4-4.1c2.2-0.1,4.3,0.3,6.5,0.7c2.6,0.4,5.1,0.8,7.7,1.2c2.4,0.3,4.8,0.1,7.2-0.5
			c0.6-0.2,1.2-0.3,1.9-0.4c1.4-0.1,2.6,0.7,2.8,1.9c0.3,1.3-0.4,2.5-1.8,2.9c-3.3,1-6.7,1.6-10.2,1.1c-0.3,0-0.6-0.1-0.8-0.1
			c-0.1,0-0.2,0-0.5,0.1c0.1,4.5,0.3,9,0.4,13.5c1.1,0,11.9-3.7,13.1-4.5c0.1-1.1,0.2-2.2,0.2-3.3c0.1-1.6,0.1-3.2,0.2-4.8
			c0.1-1.8,1.7-3,3.3-2.4c1,0.3,1.7,1.2,1.8,2.5c0,0.9,0,1.9-0.1,2.8c-0.2,3.4-0.5,6.8-0.3,10.2c0.2,2.4,0.5,4.8,1.4,7
			c0.5,1.3,1.3,2.5,2.3,3.5c1.5,1.4,3,1.5,4.6,0.2c1.1-0.9,2-2,2.8-3.2c2-3,3.4-6.3,4.4-9.8c1.2-3.9,2.1-7.9,3.2-11.9
			c0.2-0.6,0.3-1.3,0.6-1.9c0.5-1.3,1.7-2,2.9-1.8c1.3,0.2,2.2,1.2,2.2,2.7c0,2.2,0,4.5-0.1,6.8c-0.2,5.3-0.5,10.7,0.1,16
			c0.3,2.4,0.7,4.8,1.5,7.1c0.5,1.4,1.1,2.8,2.1,4c1.2,1.5,2,1.6,3.4,0.2c0.9-0.9,1.8-2,2.5-3.1c3.1-5.3,5.8-10.9,8-16.6
			c0.1-0.1,0.1-0.3,0.1-0.5c-0.3-0.2-0.6-0.5-0.9-0.7c-1.8-1.4-3.6-3-5.1-4.8c-2-2.4-3.5-5.1-3.9-8.2c-0.6-4.1,0.8-7.7,3.9-10.4
			c3-2.6,6.9-2.4,9.8,0.4c2.5,2.4,3.7,5.3,3.9,8.8c0.2,3.6-0.4,7.1-1.2,10.5c-0.2,0.7-0.3,1.4-0.5,2.2c3,1.9,6.1,3.7,9,5.5
			c2.6-1.3,5.1-2.7,7.7-4c2.6-1.2,5.3-2.4,7.9-3.5c0.1-4,0.2-8,0.3-12c-0.3-0.1-0.5-0.2-0.8-0.2c-1.5-0.2-3-0.5-4.5-0.7
			c-2.5-0.3-4.8,0.3-7,1.4c-0.4,0.2-0.9,0.5-1.3,0.6c-1.1,0.4-2.3-0.1-2.9-1.1c-0.6-1-0.4-2.3,0.6-3.2c0.3-0.2,0.6-0.5,1-0.6
			c3.8-2,7.7-2.8,11.9-2c3.2,0.6,6.4,1.4,9.6,2.1c2.2,0.5,4.4,0.8,6.7,0.8c2.1,0,4-0.4,5.9-1.2c0.8-0.4,1.6-0.7,2.4-1
			c1.6-0.6,3.2,0.3,3.4,1.9c0.2,1.1-0.3,2.1-1.3,2.6c-2.8,1.4-5.7,2.6-8.9,2.8c-3,0.2-6-0.2-8.9-0.7c-0.2,0-0.5-0.1-0.8-0.1
			c0,0.3-0.1,0.6-0.1,0.9c-0.1,5.2-0.3,10.4-0.2,15.6c0.1,5.5,0.9,10.9,2.4,16.1c0.5,1.5,1,3,1.9,4.3c0.4,0.6,1,1.2,1.6,1.7
			c0.6,0.5,1,0.4,1.5-0.1c0.5-0.5,1-1.1,1.4-1.7c0.9-1.4,1.4-3,1.9-4.6c0.5-1.9,1-3.7,1.5-5.6c0.1-0.4,0.2-0.7,0.4-1.1
			c0.5-1.3,1.8-1.9,3-1.5c1.3,0.4,2.1,1.6,1.8,2.9c-0.6,2.5-1.3,5-2,7.5c-0.4,1.4-1.1,2.8-1.7,4.2c-0.6,1.3-1.4,2.4-2.5,3.4
			c-2.5,2.5-5.7,2.6-8.5,0.5c-1.2-0.9-2.1-2.1-2.9-3.4c-1.5-2.5-2.3-5.2-2.9-8c-1.1-4.6-1.6-9.2-1.9-13.9c0-0.2,0-0.5-0.1-0.9
			c-3.8,1.7-7.6,3.2-11.2,5.4c0.3,0.3,0.5,0.5,0.7,0.8c0.8,1,1.6,1.9,2.3,2.9c2.4,3.8,2.3,7.6-0.1,11.3c-2.3,3.4-5.5,5.4-9.6,5.3
			c-4.1,0-7.5-3.2-8.2-7.2c-0.4-2.4,0.2-4.6,1.2-6.7c1-2.1,2.5-3.9,4.2-5.5c0.3-0.3,0.6-0.5,1.1-0.8c-2.3-1.4-4.4-2.7-6.6-4
			c-0.2,0.4-0.3,0.8-0.5,1.1c-2.1,5-4.4,9.8-7,14.5c-0.8,1.4-1.7,2.8-2.7,4c-0.8,1-1.8,1.9-2.9,2.6c-2.5,1.7-5.2,1.6-7.6-0.2
			c-1.3-1-2.3-2.4-3.1-3.8c-1.2-2.1-1.9-4.3-2.4-6.6c-0.6-2.8-1-5.7-1.1-8.6c0-0.3-0.1-0.5-0.1-0.8C211.1,112,211,112,211,112z
			 M168.6,115.2c-0.3,0.1-0.5,0.1-0.6,0.1c-3.1,1.3-6,2.7-8.7,4.7c-1.5,1.1-2.9,2.5-4,4.1c-1.4,2.1-1.5,4.4-0.6,6.7
			c1.1,2.8,3.5,4.1,6.4,3.5c1-0.2,1.9-0.8,2.6-1.5c1.8-1.7,2.9-3.8,3.5-6.2c0.6-2.4,0.9-4.8,1-7.2
			C168.5,118.1,168.5,116.7,168.6,115.2z M235.7,101.7c0.9-3.5,1.4-6.9,1.1-10.4c-0.2-1.4-0.7-2.6-1.6-3.7c-1.5-1.8-3.1-1.8-4.5,0.1
			c-0.1,0.1-0.1,0.2-0.2,0.3c-1.3,1.9-1.6,4-0.8,6.2C230.8,97.2,233,99.5,235.7,101.7z M249.2,116.7c-1.8,1.5-3.4,3.1-4.6,5.2
			c-0.5,0.9-0.9,1.9-1,3c-0.3,2.7,2,4.7,4.6,3.9c1.6-0.5,2.9-1.4,3.9-2.8c1.3-2,1.4-4,0.1-6C251.5,118.8,250.5,117.7,249.2,116.7z"
			/>
		<g>
			<path class="st0" d="M108.3,274.7c1.4-0.7,2.7-1.4,4-2.1c2.8-1.6,5.8-3,8.9-4c0.5-0.2,0.9-0.4,1.4-0.5c0.5-0.2,0.7-0.5,0.9-1
				c0.4-1.5,0.7-3.1,1.3-4.6c1.3-3.4,5.3-5.4,9.1-4.7c3.3,0.5,5,2.4,4.8,5.5c-0.1,1.4-0.3,2.8-0.5,4.2c-0.7,5.1-1.2,10.2-1.2,15.4
				c0,5.6,1.1,11,3.5,16.1c0.7,1.6,1.5,3.2,2.8,4.5c1.3,1.3,1.8,1.3,2.9-0.1c1.5-2,2.6-4.3,3.5-6.6c1.9-5.3,3.7-10.7,5.5-16.1
				c0.2-0.5,0.2-1.1,0.2-1.7c0.1-2.6,0.2-5.3,0.3-7.9c0-0.8,0.2-1.7,0.4-2.5c0.9-4.3,4.8-5.8,8.1-5.6c1,0.1,2.1,0.3,3,0.7
				c1.7,0.7,2.5,2,2.8,3.7c0.2,1.1,0.2,2.2,0.3,3.4c0,0.4,0,0.8,0.1,1.2c0.5-0.2,0.6-0.6,0.8-0.9c1.8-2.7,3.7-5.2,6.3-7.3
				c2.1-1.8,4.5-3.2,7.3-3.9c4.5-1.1,8.8-0.3,12.7,1.9c3.5,2,5.9,4.8,8,7.9c2.6,4,3.9,8.4,4.4,13c0,0.2,0,0.3,0.1,0.6
				c1.5-0.3,2.8-0.9,4.3-1.3c0.2-1.7,0.3-3.4,0.5-5c0.3-2.2,0.7-4.4,1.2-6.6c0.3-1.3,0.8-2.5,1.7-3.6c1.7-2.2,4.1-2.9,7-2.5
				c1.9,0.3,3.2,1.3,4,2.9c0.5,1,0.8,2.1,0.9,3.2c0.1,0.8,0.1,1.5,0.2,2.5c0.3-0.4,0.5-0.5,0.7-0.8c1.7-2,3.5-3.8,5.7-5.3
				c2.7-1.8,5.7-3.1,9-3.5c4.7-0.6,8.8,0.7,12.4,3.5c3.2,2.5,5.5,5.8,7.2,9.3c0.8,1.7,1.3,3.5,1.9,5.2c0.1,0.3,0.2,0.6,0.3,1
				c1-0.4,1.9-0.9,2.8-1.3c0.4-0.2,0.3-0.6,0.4-0.9c0.2-2,0.2-4,0.5-6c0.2-1.7,0.7-3.4,1.1-5.1c0.3-1.2,0.9-2.2,1.8-3.2
				c2-2.1,4.5-2.9,7.4-2.4c2.3,0.4,3.7,1.7,4.1,3.8c0.2,1,0.3,2.1,0.3,3.1c-0.1,3.2-0.3,6.4-0.4,9.6c-0.1,3.3-0.2,6.5,0,9.8
				c0.3,6,1.1,11.8,2.8,17.6c0.6,2.2,1.5,4.2,2.8,6.1c0.3,0.4,0.6,0.8,1,1.1c0.8,0.6,1.5,0.5,1.9-0.4c0.2-0.3,0.3-0.7,0.5-1.1
				c1.4-4.5,2.8-8.9,4.1-13.4c0.6-1.9,1-3.7,1.5-5.6c0.1-0.5,0.1-1.1,0-1.5c-1.3-5.1-2.1-10.3-2.4-15.5c-0.2-2.8-0.3-5.6,0-8.4
				c0.2-2,0.7-4,1.8-5.8c1.2-2,3.1-3.3,5.6-3.6c2.5-0.3,4.5,0.7,5.4,2.9c0.7,1.5,1,3.2,1.1,4.8c0.3,2.9,0.4,5.9,0.7,8.8
				c0.3,2.6,0.6,5.2,1,7.9c0,0.2,0.1,0.5,0.3,0.7c0.2-1.2,0.3-2.5,0.5-3.7c1.3-8.7,4.1-16.9,9-24.5c2.2-3.3,4.8-6.2,8.3-8.6
				c2.7-1.8,5.6-3,8.9-3.1c4.9-0.2,10.4,1.5,13.1,8c1.2,2.9,1.9,6,2.3,9.1c0.6,5,0.9,10,1,14.9c0.2,5.7,0.4,11.3,1.3,16.9
				c0.6,4,1.5,8,2.7,12c0.8,2.6,1.5,5.2,2.4,7.7c0.3,1,0.9,1.9,1.4,2.8c0.2,0.3,0.4,0.6,0.6,0.8c1.3,1,2.5,1.1,3.4-0.2
				c0.6-0.9,1.2-1.8,1.8-2.7c0.7-1.1,1.3-2.2,2.1-3.2c1-1.3,2.7-1.7,4.3-1.2c1.3,0.4,1.9,1.1,1.9,2.3c0,2.2-0.7,4.3-2,6.1
				c-2.1,2.9-4.8,5.1-8.4,6.2c-1.9,0.6-3.8,0.7-5.7,0.3c-2.7-0.5-5.2-1.5-7.4-3.1c-4.8-3.4-7.7-7.8-9.3-13.1
				c-1.1-3.8-1.9-7.7-2.5-11.6c-1-6.4-1.4-12.8-1.7-19.2c-0.2-5.1-0.4-10.1-1.1-15.2c-0.2-1.6-0.5-3.1-0.9-4.7
				c-0.2-0.8-0.7-1.6-1.2-2.3c-0.8-1.1-1.9-1.2-3.1-0.5c-0.4,0.2-0.7,0.5-1,0.8c-2.2,2.1-4,4.5-5.4,7.2c-3.4,6.2-5.5,12.7-6.3,19.5
				c-0.7,5.2-0.5,10.4-0.1,15.6c0.2,3,0.5,6,0.8,9c0.1,1.1,0.2,2.1,0.3,3.2c0.3,2.8-1.2,4.6-3.7,6c-1.1,0.6-2.4,0.9-3.7,1
				c-1.8,0-3.4-0.5-4.6-1.8c-1.4-1.5-2.8-2.9-3.9-4.6c-1.3-1.8-2.2-3.9-3.3-5.8c-0.2-0.3-0.3-0.6-0.5-1.1c-0.5,2-1,3.9-1.5,5.7
				c-0.7,2.5-1.5,4.9-2.7,7.3c-0.7,1.3-1.5,2.6-2.7,3.7c-3.2,3-7.6,3.6-11.6,1.6c-1.6-0.8-3-1.9-4.2-3.1c-3.2-3.1-5.4-6.7-7.1-10.6
				c-1.5-3.4-2.3-6.9-2.8-10.5c-0.5-3.6-0.7-7.3-0.7-10.9c0-0.2,0-0.5-0.1-0.9c-0.8,0.4-1.5,0.7-2.2,1.1c0,0.6,0,1.1,0,1.7
				c0.2,6.5-1,12.7-3.8,18.6c-2.3,5-5.6,9.2-10.4,12.3c-2.4,1.6-5.1,2.6-8,3c-1.9,0.2-3.8,0.1-5.6-0.5c-3.9-1.2-6.1-3.8-6.8-7.4
				c-0.6-3-0.1-5.8,1.3-8.5c1.5-2.9,3.6-5.3,6-7.6c3.8-3.5,8.2-6.4,12.7-9.1c1.4-0.9,1.4-0.8,1.5-2.4c0.2-4.3-0.5-8.4-2.1-12.4
				c-0.7-1.7-1.6-3.3-3.2-4.5c-0.5-0.4-1.1-0.7-1.7-1c-0.8-0.4-1.8-0.4-2.7-0.2c-1.3,0.3-2.5,1-3.6,1.7c-1.8,1.2-3.3,2.7-4.6,4.3
				c-3.9,4.7-6.5,9.9-7.6,15.7c-0.1,0.5-0.1,1.1-0.1,1.7c0,7.3,0.6,14.5,1.8,21.8c1,6.4,2.3,12.7,4.2,18.9c1.2,3.8,2.5,7.5,4.1,11.2
				c0.2,0.4,0.4,0.9,0.5,1.3c1.3,3.5-0.2,7-3.7,8.9c-1.3,0.7-2.5,1.2-4,1.2c-2.1,0.1-3.7-0.7-4.8-2.3c-0.4-0.6-0.7-1.2-1-1.9
				c-3.8-8.5-6.6-17.2-8.4-26.3c-1-4.9-1.8-9.9-2.5-14.9c-1-7.3-1.3-14.7-1-22c0-0.3,0-0.6,0-0.9c0-0.1-0.1-0.1-0.1-0.3
				c-1.3,0.5-2.6,1-3.9,1.4c-0.4,3.3-1.2,6.5-2.4,9.6c-1.8,4.8-4.2,9.3-7.8,13.2c-3.1,3.3-6.8,5.9-11.4,7.3c-2.5,0.8-5.1,1-7.7,0.4
				c-5.8-1.3-9-6.1-7.6-11.5c1-3.8,3.1-7.1,6.3-9.8c2.6-2.2,5.5-4,8.6-5.4c2.6-1.2,5.2-2.3,7.8-3.4c0.5-0.2,0.9-0.4,0.9-0.9
				c0.4-4.1,0.4-8.2-0.9-12.1c-0.6-1.7-1.3-3.5-2.2-5.1c-1-1.9-2.5-3.5-4.5-4.7c-1.4-0.8-2.7-0.8-4.1,0c-2,1.2-3.7,2.7-5.2,4.5
				c-4,4.8-6.8,10.1-7.9,16.1c-0.5,2.6-0.7,5.2-0.8,7.8c-0.4,8.1,0.5,16.2,2.1,24.1c1.5,7.7,3.5,15.3,6.4,22.8c0.4,1,0.8,2,1.2,3
				c1.9,5.2-2.3,10.2-8.3,10.1c-1.6-0.1-2.9-0.6-3.8-1.8c-0.6-0.8-1.1-1.6-1.5-2.5c-2.7-6.2-4.7-12.7-6.4-19.3
				c-1.6-6.3-2.9-12.6-3.7-19c-0.5-4-0.8-8-1.2-12c0-0.1,0-0.3-0.2-0.5c-0.1,0.3-0.2,0.6-0.3,1c-0.8,2.6-1.7,5.2-3,7.6
				c-0.8,1.6-1.9,3.1-3.5,4.3c-3.1,2.2-6.6,2.6-10.3,1.7c-4.7-1.2-8.4-3.7-11-7.5c-2-3-3.1-6.3-4-9.6c-1.5-5.7-1.9-11.5-1.5-17.4
				c0.1-1.6,0.2-3.2,0.3-4.9c-3.9,1.9-7.6,3.8-11.4,5.7c0.2,0.5,0.4,0.8,0.5,1.2c2.9,6.2,5.3,12.5,6.8,19.1
				c1.4,6.1,1.4,12.1,0.5,18.3c-0.7,4.2-1.8,8.3-3.6,12.2c-2.6,5.4-6.5,9.8-12.1,12.8c-8.2,4.6-16.6,4.5-24.7-0.3
				c-6.5-3.8-10.2-9.4-11.2-16.4c-0.8-5.6,0.2-10.9,2.7-16.1c1.5-3.2,3.4-6.2,5.5-9c4.1-5.6,9.2-10.4,14.6-14.8
				c1.7-1.4,3.6-2.8,5.5-4.2c-0.1-0.3-0.3-0.6-0.4-0.9c-3.6-7.3-8.5-13.9-13.9-20.1c-5.9-6.9-11.8-13.9-17.1-21.2
				c-2.9-4-5.6-8-7.5-12.4c-1.5-3.5-2.6-7-2.4-10.8c0.2-4.4,2-8.2,4.9-11.6c5.1-5.9,11.9-8.5,20.1-7.7c4.8,0.5,8.8,2.6,12,5.9
				c3.3,3.5,5.3,7.6,6.4,12c1.1,4.3,1.2,8.6-0.1,12.9c-0.2,0.8-0.6,1.5-1,2.2c-0.6,1-1.6,1.4-2.8,1.4c-1-0.1-1.5-0.5-1.5-1.4
				c0-0.9,0-1.8,0.1-2.6c0.4-5.8-1-11.2-3.8-16.3c-1.4-2.6-3.3-4.9-5.9-6.7c-2-1.4-4.3-2.1-6.9-2c-2,0.1-3.5,0.9-4.8,2.2
				c-1.4,1.5-2,3.3-2.3,5.2c-0.5,3.8,0,7.6,1.5,11.2c1.2,2.9,2.7,5.6,4.5,8.2c4.1,6.1,8.8,11.9,13.6,17.6c2.7,3.2,5.5,6.3,8.2,9.6
				c4.4,5.3,8.5,10.9,11.6,17C108,274.3,108.1,274.4,108.3,274.7z M98.3,288.1c-0.5,0.4-0.8,0.5-1,0.7c-5.1,4.2-9.8,8.6-13.9,13.6
				c-2.8,3.5-5.2,7.1-6.9,11.2c-1.9,4.8-2.2,9.6-0.5,14.5c1.8,5.1,5.3,8.7,10.9,10.3c4.2,1.2,9,0.5,12-3.8c1.7-2.4,3.1-4.9,4.1-7.7
				c1.2-3.5,1.8-7.2,2-10.9c0.1-2.7,0.1-5.4-0.3-8.1c-0.6-3.9-1.7-7.7-3-11.5C100.6,293.8,99.4,291,98.3,288.1z M253.5,294.8
				c-0.1,0-0.2-0.1-0.2-0.1c-0.2,0.1-0.3,0.2-0.5,0.3c-3.9,2.5-7.2,5.6-9.7,9.3c-0.5,0.7-0.9,1.5-1.3,2.4c-0.6,1.5-0.6,3-0.1,4.4
				c0.2,0.6,0.6,1.2,1,1.6c0.7,0.8,1.5,0.9,2.5,0.4c0.9-0.4,1.6-0.9,2.2-1.7c0.5-0.8,1-1.6,1.5-2.4c1.9-3.3,3.1-6.9,3.9-10.5
				C253,297.3,253.2,296.1,253.5,294.8z M194.8,294.4c-0.5,0.1-0.8,0.2-1,0.3c-3.3,1.4-6.4,3.1-8.9,5.5c-1.9,1.8-3.1,3.9-3.4,6.4
				c-0.1,0.6,0.1,1.3,0.3,1.9c0.5,1.4,1.8,1.8,3.1,1.1c0.9-0.5,1.8-1.1,2.5-1.8c1.6-1.6,2.9-3.4,3.9-5.3c1-2,1.9-4.1,2.8-6.2
				C194.3,295.7,194.5,295.1,194.8,294.4z"/>
			<path class="st0" d="M370.3,233.8c0,2.6-0.5,5.1-1.4,7.6c-0.9,2.5-4.8,3.9-7.4,2.6c-1.1-0.6-1.8-1.4-1.8-2.6
				c0.2-5-1.7-9.4-3.9-13.9c-0.3-0.6-0.6-1.3-0.9-2c-0.7-2.1,0.1-3.8,2.3-4.7c2.9-1.1,5.5-0.5,7.9,1.2c1.7,1.2,2.9,2.9,3.6,4.8
				C369.9,229.1,370.3,231.4,370.3,233.8z"/>
			<path class="st0" d="M133.9,254.8c-3.6,0.1-6.9-3.1-7.1-6.3c-0.1-1.1,0.4-2.1,1.2-3c2-2.3,6.1-3.4,9.1-2.4c2.9,1,4.9,4.3,4.3,7
				c-0.2,1-0.8,1.8-1.5,2.4C138.1,254,136.2,254.7,133.9,254.8z"/>
			<path class="st0" d="M280.1,260.6c-0.3,0-0.9-0.1-1.4-0.1c-0.9-0.1-1.8-0.5-2.5-1c-2.6-2-3-5.8-0.8-8.1c2.1-2.2,4.8-3,7.9-2.4
				c1.6,0.3,2.8,1.1,3.6,2.4c0.5,0.8,0.9,1.8,1.2,2.7c0.4,1.7-0.1,3.1-1.5,4.3C284.9,260,282.7,260.6,280.1,260.6z"/>
		</g>
	</g>
</g>
</svg>
